<mxfile host="Electron" modified="2024-06-22T02:42:10.225Z" agent="Mozilla/5.0 (X11; Linux x86_64) AppleWebKit/537.36 (KHTML, like Gecko) draw.io/24.6.1 Chrome/124.0.6367.207 Electron/30.0.6 Safari/537.36" etag="OxbevPOkKjgYUh-uwiA5" version="24.6.1" type="device">
  <diagram name="Page-1" id="OsTNRhz2HGVFkXwRg2c6">
    <mxGraphModel dx="1195" dy="756" grid="1" gridSize="10" guides="1" tooltips="1" connect="1" arrows="1" fold="1" page="1" pageScale="1" pageWidth="1100" pageHeight="850" math="0" shadow="0">
      <root>
        <mxCell id="0" />
        <mxCell id="1" parent="0" />
        <mxCell id="_hdkQblJNIDlAJG2foPB-2" value="" style="rounded=0;whiteSpace=wrap;html=1;" parent="1" vertex="1">
          <mxGeometry x="90" y="160" width="370" height="320" as="geometry" />
        </mxCell>
        <mxCell id="_hdkQblJNIDlAJG2foPB-3" value="" style="aspect=fixed;sketch=0;html=1;dashed=0;whitespace=wrap;verticalLabelPosition=bottom;verticalAlign=top;fillColor=#2875E2;strokeColor=#ffffff;points=[[0.005,0.63,0],[0.1,0.2,0],[0.9,0.2,0],[0.5,0,0],[0.995,0.63,0],[0.72,0.99,0],[0.5,1,0],[0.28,0.99,0]];shape=mxgraph.kubernetes.icon2;prIcon=ing" parent="1" vertex="1">
          <mxGeometry x="130" y="187.06" width="50" height="48" as="geometry" />
        </mxCell>
        <mxCell id="_hdkQblJNIDlAJG2foPB-4" value="" style="aspect=fixed;sketch=0;html=1;dashed=0;whitespace=wrap;verticalLabelPosition=bottom;verticalAlign=top;fillColor=#2875E2;strokeColor=#ffffff;points=[[0.005,0.63,0],[0.1,0.2,0],[0.9,0.2,0],[0.5,0,0],[0.995,0.63,0],[0.72,0.99,0],[0.5,1,0],[0.28,0.99,0]];shape=mxgraph.kubernetes.icon2;prIcon=svc" parent="1" vertex="1">
          <mxGeometry x="230" y="300" width="50" height="48" as="geometry" />
        </mxCell>
        <mxCell id="_hdkQblJNIDlAJG2foPB-5" value="" style="endArrow=classic;html=1;rounded=0;entryX=0.5;entryY=0;entryDx=0;entryDy=0;entryPerimeter=0;" parent="1" target="_hdkQblJNIDlAJG2foPB-3" edge="1">
          <mxGeometry width="50" height="50" relative="1" as="geometry">
            <mxPoint x="210" y="50" as="sourcePoint" />
            <mxPoint x="610" y="260" as="targetPoint" />
          </mxGeometry>
        </mxCell>
        <mxCell id="xktgoefOd7vhMgcWlypV-6" value="Cloud Load Balancer" style="edgeLabel;html=1;align=center;verticalAlign=middle;resizable=0;points=[];" vertex="1" connectable="0" parent="_hdkQblJNIDlAJG2foPB-5">
          <mxGeometry x="-0.074" y="4" relative="1" as="geometry">
            <mxPoint as="offset" />
          </mxGeometry>
        </mxCell>
        <mxCell id="_hdkQblJNIDlAJG2foPB-6" value="" style="endArrow=classic;html=1;rounded=0;exitX=0.72;exitY=0.99;exitDx=0;exitDy=0;exitPerimeter=0;entryX=0.1;entryY=0.2;entryDx=0;entryDy=0;entryPerimeter=0;" parent="1" source="_hdkQblJNIDlAJG2foPB-3" target="_hdkQblJNIDlAJG2foPB-4" edge="1">
          <mxGeometry width="50" height="50" relative="1" as="geometry">
            <mxPoint x="550" y="280" as="sourcePoint" />
            <mxPoint x="600" y="230" as="targetPoint" />
          </mxGeometry>
        </mxCell>
        <mxCell id="_hdkQblJNIDlAJG2foPB-35" value="linkerd SMI TrafficSplit" style="edgeLabel;html=1;align=center;verticalAlign=middle;resizable=0;points=[];" parent="_hdkQblJNIDlAJG2foPB-6" vertex="1" connectable="0">
          <mxGeometry x="-0.1911" y="3" relative="1" as="geometry">
            <mxPoint x="-26" y="2" as="offset" />
          </mxGeometry>
        </mxCell>
        <mxCell id="_hdkQblJNIDlAJG2foPB-7" value="" style="endArrow=classic;html=1;rounded=0;exitX=0.28;exitY=0.99;exitDx=0;exitDy=0;exitPerimeter=0;entryX=0.72;entryY=0.99;entryDx=0;entryDy=0;entryPerimeter=0;dashed=1;" parent="1" source="_hdkQblJNIDlAJG2foPB-4" target="_hdkQblJNIDlAJG2foPB-8" edge="1">
          <mxGeometry width="50" height="50" relative="1" as="geometry">
            <mxPoint x="150" y="350" as="sourcePoint" />
            <mxPoint x="200" y="300" as="targetPoint" />
          </mxGeometry>
        </mxCell>
        <mxCell id="_hdkQblJNIDlAJG2foPB-29" value="linkerd-failover" style="edgeLabel;html=1;align=center;verticalAlign=middle;resizable=0;points=[];" parent="_hdkQblJNIDlAJG2foPB-7" vertex="1" connectable="0">
          <mxGeometry x="0.1724" y="1" relative="1" as="geometry">
            <mxPoint x="9" y="-1" as="offset" />
          </mxGeometry>
        </mxCell>
        <mxCell id="_hdkQblJNIDlAJG2foPB-8" value="" style="aspect=fixed;sketch=0;html=1;dashed=0;whitespace=wrap;verticalLabelPosition=bottom;verticalAlign=top;fillColor=#2875E2;strokeColor=#ffffff;points=[[0.005,0.63,0],[0.1,0.2,0],[0.9,0.2,0],[0.5,0,0],[0.995,0.63,0],[0.72,0.99,0],[0.5,1,0],[0.28,0.99,0]];shape=mxgraph.kubernetes.icon2;prIcon=svc" parent="1" vertex="1">
          <mxGeometry x="100" y="300" width="50" height="48" as="geometry" />
        </mxCell>
        <mxCell id="_hdkQblJNIDlAJG2foPB-11" value="" style="rounded=0;whiteSpace=wrap;html=1;" parent="1" vertex="1">
          <mxGeometry x="580" y="150" width="310" height="330" as="geometry" />
        </mxCell>
        <mxCell id="_hdkQblJNIDlAJG2foPB-12" value="Karmada&lt;div&gt;&lt;br&gt;&lt;/div&gt;&lt;div&gt;&lt;br&gt;&lt;/div&gt;&lt;div&gt;&lt;br&gt;&lt;/div&gt;&lt;div&gt;&lt;br&gt;&lt;/div&gt;&lt;div&gt;&lt;br&gt;&lt;/div&gt;" style="rounded=0;whiteSpace=wrap;html=1;" parent="1" vertex="1">
          <mxGeometry x="330" y="336.59" width="100" height="104.94" as="geometry" />
        </mxCell>
        <mxCell id="_hdkQblJNIDlAJG2foPB-14" value="linkerd-multicluster gateway (port forwarding)" style="rounded=0;whiteSpace=wrap;html=1;" parent="1" vertex="1">
          <mxGeometry x="520" y="235.06" width="120" height="60" as="geometry" />
        </mxCell>
        <mxCell id="_hdkQblJNIDlAJG2foPB-15" value="k3s API server (port forwarding)" style="rounded=0;whiteSpace=wrap;html=1;" parent="1" vertex="1">
          <mxGeometry x="510" y="359.06" width="120" height="60" as="geometry" />
        </mxCell>
        <mxCell id="_hdkQblJNIDlAJG2foPB-16" value="app1" style="rounded=0;whiteSpace=wrap;html=1;" parent="1" vertex="1">
          <mxGeometry x="360" y="380.12" width="40" height="38.94" as="geometry" />
        </mxCell>
        <mxCell id="_hdkQblJNIDlAJG2foPB-17" value="" style="endArrow=none;html=1;rounded=0;exitX=1;exitY=1;exitDx=0;exitDy=0;entryX=0;entryY=0.5;entryDx=0;entryDy=0;" parent="1" source="_hdkQblJNIDlAJG2foPB-16" target="_hdkQblJNIDlAJG2foPB-15" edge="1">
          <mxGeometry width="50" height="50" relative="1" as="geometry">
            <mxPoint x="390" y="320" as="sourcePoint" />
            <mxPoint x="440" y="270" as="targetPoint" />
          </mxGeometry>
        </mxCell>
        <mxCell id="_hdkQblJNIDlAJG2foPB-18" value="Push Mode" style="edgeLabel;html=1;align=center;verticalAlign=middle;resizable=0;points=[];" parent="_hdkQblJNIDlAJG2foPB-17" vertex="1" connectable="0">
          <mxGeometry x="-0.0052" y="1" relative="1" as="geometry">
            <mxPoint as="offset" />
          </mxGeometry>
        </mxCell>
        <mxCell id="_hdkQblJNIDlAJG2foPB-20" value="app1 k3s instance" style="rounded=0;whiteSpace=wrap;html=1;" parent="1" vertex="1">
          <mxGeometry x="790" y="360.5" width="60" height="45" as="geometry" />
        </mxCell>
        <mxCell id="_hdkQblJNIDlAJG2foPB-24" value="app1 GKE failover instance" style="rounded=0;whiteSpace=wrap;html=1;dashed=1;" parent="1" vertex="1">
          <mxGeometry x="125" y="396" width="60" height="55" as="geometry" />
        </mxCell>
        <mxCell id="_hdkQblJNIDlAJG2foPB-27" value="" style="endArrow=classic;html=1;rounded=0;exitX=0.995;exitY=0.63;exitDx=0;exitDy=0;exitPerimeter=0;entryX=0;entryY=0.5;entryDx=0;entryDy=0;" parent="1" source="_hdkQblJNIDlAJG2foPB-4" target="_hdkQblJNIDlAJG2foPB-14" edge="1">
          <mxGeometry width="50" height="50" relative="1" as="geometry">
            <mxPoint x="560" y="370" as="sourcePoint" />
            <mxPoint x="610" y="320" as="targetPoint" />
          </mxGeometry>
        </mxCell>
        <mxCell id="_hdkQblJNIDlAJG2foPB-48" value="linkerd-multicluster&lt;br&gt;service mirroring" style="edgeLabel;html=1;align=center;verticalAlign=middle;resizable=0;points=[];" parent="_hdkQblJNIDlAJG2foPB-27" vertex="1" connectable="0">
          <mxGeometry x="-0.0364" y="2" relative="1" as="geometry">
            <mxPoint as="offset" />
          </mxGeometry>
        </mxCell>
        <mxCell id="_hdkQblJNIDlAJG2foPB-28" value="" style="endArrow=classic;html=1;rounded=0;exitX=1;exitY=0.5;exitDx=0;exitDy=0;entryX=0.005;entryY=0.63;entryDx=0;entryDy=0;entryPerimeter=0;" parent="1" source="_hdkQblJNIDlAJG2foPB-14" target="_hdkQblJNIDlAJG2foPB-46" edge="1">
          <mxGeometry width="50" height="50" relative="1" as="geometry">
            <mxPoint x="560" y="370" as="sourcePoint" />
            <mxPoint x="610" y="320" as="targetPoint" />
          </mxGeometry>
        </mxCell>
        <mxCell id="_hdkQblJNIDlAJG2foPB-49" value="linkerd-multicluster&lt;br&gt;service mirroring" style="edgeLabel;html=1;align=center;verticalAlign=middle;resizable=0;points=[];" parent="_hdkQblJNIDlAJG2foPB-28" vertex="1" connectable="0">
          <mxGeometry x="-0.0745" y="3" relative="1" as="geometry">
            <mxPoint as="offset" />
          </mxGeometry>
        </mxCell>
        <mxCell id="_hdkQblJNIDlAJG2foPB-34" value="" style="endArrow=classic;html=1;rounded=0;exitX=0.5;exitY=1;exitDx=0;exitDy=0;exitPerimeter=0;entryX=0.25;entryY=0;entryDx=0;entryDy=0;dashed=1;" parent="1" source="_hdkQblJNIDlAJG2foPB-8" target="_hdkQblJNIDlAJG2foPB-24" edge="1">
          <mxGeometry width="50" height="50" relative="1" as="geometry">
            <mxPoint x="560" y="370" as="sourcePoint" />
            <mxPoint x="610" y="320" as="targetPoint" />
          </mxGeometry>
        </mxCell>
        <mxCell id="_hdkQblJNIDlAJG2foPB-36" value="GKE" style="rounded=0;whiteSpace=wrap;html=1;" parent="1" vertex="1">
          <mxGeometry x="230" y="140" width="50" height="40" as="geometry" />
        </mxCell>
        <mxCell id="_hdkQblJNIDlAJG2foPB-37" value="Local k3s" style="rounded=0;whiteSpace=wrap;html=1;" parent="1" vertex="1">
          <mxGeometry x="710" y="130" width="50" height="40" as="geometry" />
        </mxCell>
        <mxCell id="_hdkQblJNIDlAJG2foPB-38" value="" style="aspect=fixed;sketch=0;html=1;dashed=0;whitespace=wrap;verticalLabelPosition=bottom;verticalAlign=top;fillColor=#2875E2;strokeColor=#ffffff;points=[[0.005,0.63,0],[0.1,0.2,0],[0.9,0.2,0],[0.5,0,0],[0.995,0.63,0],[0.72,0.99,0],[0.5,1,0],[0.28,0.99,0]];shape=mxgraph.kubernetes.icon2;prIcon=svc" parent="1" vertex="1">
          <mxGeometry x="630" y="200" width="50" height="48" as="geometry" />
        </mxCell>
        <mxCell id="_hdkQblJNIDlAJG2foPB-39" value="" style="aspect=fixed;sketch=0;html=1;dashed=0;whitespace=wrap;verticalLabelPosition=bottom;verticalAlign=top;fillColor=#2875E2;strokeColor=#ffffff;points=[[0.005,0.63,0],[0.1,0.2,0],[0.9,0.2,0],[0.5,0,0],[0.995,0.63,0],[0.72,0.99,0],[0.5,1,0],[0.28,0.99,0]];shape=mxgraph.kubernetes.icon2;prIcon=svc" parent="1" vertex="1">
          <mxGeometry x="620" y="320" width="50" height="48" as="geometry" />
        </mxCell>
        <mxCell id="_hdkQblJNIDlAJG2foPB-40" value="" style="aspect=fixed;sketch=0;html=1;dashed=0;whitespace=wrap;verticalLabelPosition=bottom;verticalAlign=top;fillColor=#2875E2;strokeColor=#ffffff;points=[[0.005,0.63,0],[0.1,0.2,0],[0.9,0.2,0],[0.5,0,0],[0.995,0.63,0],[0.72,0.99,0],[0.5,1,0],[0.28,0.99,0]];shape=mxgraph.kubernetes.icon2;prIcon=deploy" parent="1" vertex="1">
          <mxGeometry x="390" y="370" width="27.08" height="26" as="geometry" />
        </mxCell>
        <mxCell id="_hdkQblJNIDlAJG2foPB-44" value="" style="aspect=fixed;sketch=0;html=1;dashed=0;whitespace=wrap;verticalLabelPosition=bottom;verticalAlign=top;fillColor=#2875E2;strokeColor=#ffffff;points=[[0.005,0.63,0],[0.1,0.2,0],[0.9,0.2,0],[0.5,0,0],[0.995,0.63,0],[0.72,0.99,0],[0.5,1,0],[0.28,0.99,0]];shape=mxgraph.kubernetes.icon2;prIcon=deploy" parent="1" vertex="1">
          <mxGeometry x="180" y="441.53" width="27.08" height="26" as="geometry" />
        </mxCell>
        <mxCell id="_hdkQblJNIDlAJG2foPB-45" value="" style="aspect=fixed;sketch=0;html=1;dashed=0;whitespace=wrap;verticalLabelPosition=bottom;verticalAlign=top;fillColor=#2875E2;strokeColor=#ffffff;points=[[0.005,0.63,0],[0.1,0.2,0],[0.9,0.2,0],[0.5,0,0],[0.995,0.63,0],[0.72,0.99,0],[0.5,1,0],[0.28,0.99,0]];shape=mxgraph.kubernetes.icon2;prIcon=deploy" parent="1" vertex="1">
          <mxGeometry x="840" y="342" width="27.08" height="26" as="geometry" />
        </mxCell>
        <mxCell id="_hdkQblJNIDlAJG2foPB-46" value="" style="aspect=fixed;sketch=0;html=1;dashed=0;whitespace=wrap;verticalLabelPosition=bottom;verticalAlign=top;fillColor=#2875E2;strokeColor=#ffffff;points=[[0.005,0.63,0],[0.1,0.2,0],[0.9,0.2,0],[0.5,0,0],[0.995,0.63,0],[0.72,0.99,0],[0.5,1,0],[0.28,0.99,0]];shape=mxgraph.kubernetes.icon2;prIcon=svc" parent="1" vertex="1">
          <mxGeometry x="797.08" y="309" width="31.25" height="30" as="geometry" />
        </mxCell>
        <mxCell id="_hdkQblJNIDlAJG2foPB-47" value="" style="endArrow=classic;html=1;rounded=0;exitX=0.72;exitY=0.99;exitDx=0;exitDy=0;exitPerimeter=0;entryX=0.5;entryY=0;entryDx=0;entryDy=0;" parent="1" source="_hdkQblJNIDlAJG2foPB-46" target="_hdkQblJNIDlAJG2foPB-20" edge="1">
          <mxGeometry width="50" height="50" relative="1" as="geometry">
            <mxPoint x="560" y="370" as="sourcePoint" />
            <mxPoint x="610" y="320" as="targetPoint" />
          </mxGeometry>
        </mxCell>
        <mxCell id="_hdkQblJNIDlAJG2foPB-50" value="" style="endArrow=classic;html=1;rounded=0;exitX=0.28;exitY=0.99;exitDx=0;exitDy=0;exitPerimeter=0;entryX=0.5;entryY=0;entryDx=0;entryDy=0;entryPerimeter=0;dashed=1;" parent="1" source="_hdkQblJNIDlAJG2foPB-3" target="_hdkQblJNIDlAJG2foPB-8" edge="1">
          <mxGeometry width="50" height="50" relative="1" as="geometry">
            <mxPoint x="560" y="370" as="sourcePoint" />
            <mxPoint x="610" y="320" as="targetPoint" />
          </mxGeometry>
        </mxCell>
        <mxCell id="xktgoefOd7vhMgcWlypV-1" value="Users" style="shape=umlActor;verticalLabelPosition=bottom;verticalAlign=top;html=1;outlineConnect=0;" vertex="1" parent="1">
          <mxGeometry x="230" y="10" width="30" height="60" as="geometry" />
        </mxCell>
        <mxCell id="xktgoefOd7vhMgcWlypV-8" value="" style="endArrow=classic;html=1;rounded=0;exitX=1;exitY=0.5;exitDx=0;exitDy=0;entryX=0;entryY=0.5;entryDx=0;entryDy=0;" edge="1" parent="1" source="_hdkQblJNIDlAJG2foPB-15" target="_hdkQblJNIDlAJG2foPB-20">
          <mxGeometry width="50" height="50" relative="1" as="geometry">
            <mxPoint x="640" y="420" as="sourcePoint" />
            <mxPoint x="690" y="370" as="targetPoint" />
          </mxGeometry>
        </mxCell>
        <mxCell id="xktgoefOd7vhMgcWlypV-9" value="" style="endArrow=classic;html=1;rounded=0;exitX=0;exitY=0.75;exitDx=0;exitDy=0;entryX=1;entryY=0.5;entryDx=0;entryDy=0;dashed=1;" edge="1" parent="1" source="_hdkQblJNIDlAJG2foPB-12" target="_hdkQblJNIDlAJG2foPB-24">
          <mxGeometry width="50" height="50" relative="1" as="geometry">
            <mxPoint x="490" y="430" as="sourcePoint" />
            <mxPoint x="540" y="380" as="targetPoint" />
          </mxGeometry>
        </mxCell>
        <mxCell id="xktgoefOd7vhMgcWlypV-10" value="Pull Mode" style="edgeLabel;html=1;align=center;verticalAlign=middle;resizable=0;points=[];" vertex="1" connectable="0" parent="xktgoefOd7vhMgcWlypV-9">
          <mxGeometry x="0.2639" y="-1" relative="1" as="geometry">
            <mxPoint as="offset" />
          </mxGeometry>
        </mxCell>
      </root>
    </mxGraphModel>
  </diagram>
</mxfile>
